<?xml version="1.0" encoding="UTF-8" standalone="no"?>
<svg
   version="1.1"
   width="1024"
   height="1024"
   id="svg124"
   sodipodi:docname="Genini_Generated_Share_Helper.svg"
   inkscape:version="1.2.2 (b0a8486541, 2022-12-01)"
   xmlns:inkscape="http://www.inkscape.org/namespaces/inkscape"
   xmlns:sodipodi="http://sodipodi.sourceforge.net/DTD/sodipodi-0.dtd"
   xmlns:xlink="http://www.w3.org/1999/xlink"
   xmlns="http://www.w3.org/2000/svg"
   xmlns:svg="http://www.w3.org/2000/svg">
  <defs
     id="defs128">
    <linearGradient
       inkscape:collect="always"
       id="linearGradient3341">
      <stop
         style="stop-color:#8ac3e7;stop-opacity:1;"
         offset="0.27029413"
         id="stop3337" />
      <stop
         style="stop-color:#f5c3aa;stop-opacity:1;"
         offset="0.80000013"
         id="stop3339" />
    </linearGradient>
    <linearGradient
       inkscape:collect="always"
       xlink:href="#linearGradient3341"
       id="linearGradient3343"
       x1="-0.48733586"
       y1="1024.4852"
       x2="1024.4867"
       y2="-0.47882804"
       gradientUnits="userSpaceOnUse" />
  </defs>
  <sodipodi:namedview
     id="namedview126"
     pagecolor="#000000"
     bordercolor="#000000"
     borderopacity="0.25"
     inkscape:showpageshadow="2"
     inkscape:pageopacity="0"
     inkscape:pagecheckerboard="0"
     inkscape:deskcolor="#d1d1d1"
     showgrid="false"
     inkscape:zoom="0.54206916"
     inkscape:cx="377.25813"
     inkscape:cy="672.42342"
     inkscape:window-width="1886"
     inkscape:window-height="1011"
     inkscape:window-x="0"
     inkscape:window-y="0"
     inkscape:window-maximized="1"
     inkscape:current-layer="g62" />
  <g
     fill="none"
     stroke-linecap="butt"
     id="g62">
    <path
       stroke="#B7C3CF"
       d="M 0.00 87.00 L 0.00 87.00 C 0.00 87.00 0.67 83.62 1.50 79.50 C 2.33 75.38 3.90 69.08 5.00 65.50 C 6.10 61.92 8.12 56.75 9.50 54.00 C 10.88 51.25 13.80 46.30 16.00 43.00 C 18.20 39.70 23.60 33.40 28.00 29.00 C 32.40 24.60 38.70 19.20 42.00 17.00 C 45.30 14.80 51.83 11.20 56.50 9.00 C 61.17 6.80 68.60 4.10 73.00 3.00 C 77.40 1.90 82.12 0.78 86.00 0.00"
       vector-effect="non-scaling-stroke"
       id="path2" />
    <path
       stroke="#FEFEFE"
       d="M 1024.00 86.00 L 1024.00 86.00 C 1024.00 86.00 1023.10 82.17 1022.00 77.50 C 1020.90 72.83 1019.55 67.42 1019.00 65.50 C 1018.45 63.58 1016.42 58.85 1014.50 55.00 C 1012.58 51.15 1009.20 45.30 1007.00 42.00 C 1004.80 38.70 999.62 32.62 995.50 28.50 C 991.38 24.38 985.30 19.20 982.00 17.00 C 978.70 14.80 973.30 11.65 970.00 10.00 C 966.70 8.35 961.08 6.10 957.50 5.00 C 953.92 3.90 948.75 2.33 941.00 0.00"
       vector-effect="non-scaling-stroke"
       id="path4" />
    <path
       stroke="#FDFDFD"
       d="M 375.50 75.00 C 500.07 74.45 662.08 74.22 735.50 74.50 C 848.73 74.92 870.14 75.23 876.50 76.50 C 880.62 77.33 886.92 79.12 890.50 80.50 C 894.08 81.88 899.92 84.58 903.50 86.50 C 907.08 88.42 912.70 92.03 916.00 94.50 C 919.30 96.97 924.70 101.92 928.00 105.50 C 931.30 109.08 935.58 114.47 937.50 117.50 C 939.42 120.53 942.58 126.38 944.50 130.50 C 946.42 134.62 948.90 141.82 950.00 146.50 C 951.97 154.88 952.00 158.50 952.00 406.00 C 952.00 625.11 951.81 657.95 950.50 664.50 C 949.67 668.62 947.88 674.70 946.50 678.00 C 945.12 681.30 942.42 686.92 940.50 690.50 C 938.58 694.08 934.75 699.70 932.00 703.00 C 929.25 706.30 924.52 711.25 921.50 714.00 C 918.48 716.75 913.98 720.35 911.50 722.00 C 909.02 723.65 903.85 726.58 900.00 728.50 C 896.15 730.42 889.17 733.12 876.00 737.00 L 516.50 737.50 C 200.03 737.94 155.92 737.82 148.00 736.50 C 143.05 735.67 135.18 733.42 130.50 731.50 C 125.83 729.58 119.75 726.65 117.00 725.00 C 114.25 723.35 109.08 719.75 105.50 717.00 C 101.92 714.25 96.08 708.40 92.50 704.00 C 88.92 699.60 84.20 692.40 82.00 688.00 C 79.80 683.60 76.88 676.62 75.50 672.50 C 74.12 668.38 72.55 660.95 72.00 656.00 C 71.35 650.12 71.17 561.56 71.50 400.50 C 71.99 157.99 72.03 153.88 74.00 146.50 C 75.10 142.38 77.12 136.30 78.50 133.00 C 79.88 129.70 82.35 124.75 84.00 122.00 C 85.65 119.25 89.25 114.08 92.00 110.50 C 94.75 106.92 99.25 101.97 102.00 99.50 C 104.75 97.03 109.70 93.20 113.00 91.00 C 116.30 88.80 122.38 85.42 126.50 83.50 C 130.62 81.58 137.38 79.10 141.50 78.00 C 148.84 76.04 153.83 75.98 375.50 75.00"
       vector-effect="non-scaling-stroke"
       id="path6" />
    <path
       stroke="#1C3A59"
       d="M 174.00 122.00 C 178.55 121.35 296.17 121.00 510.50 121.00 C 724.17 121.00 842.81 121.35 848.00 122.00 C 852.40 122.55 858.70 123.90 862.00 125.00 C 865.30 126.10 871.15 128.80 875.00 131.00 C 878.94 133.25 885.28 138.28 889.50 142.50 C 893.62 146.62 898.58 152.70 900.50 156.00 C 902.42 159.30 905.12 165.15 909.00 176.00 L 909.50 403.50 C 909.94 603.37 909.82 631.79 908.50 637.50 C 907.67 641.08 905.88 646.48 904.50 649.50 C 903.12 652.52 899.98 657.92 897.50 661.50 C 895.02 665.08 890.52 670.25 887.50 673.00 C 884.48 675.75 878.85 679.80 875.00 682.00 C 871.15 684.20 864.62 687.12 853.00 691.00 L 511.50 691.00 C 173.00 691.00 169.94 690.98 163.00 689.00 C 159.15 687.90 152.85 685.42 149.00 683.50 C 145.15 681.58 139.53 677.98 136.50 675.50 C 133.47 673.02 128.97 668.30 126.50 665.00 C 124.03 661.70 120.42 655.62 118.50 651.50 C 116.58 647.38 114.33 641.52 113.50 638.50 C 112.19 633.71 111.94 604.04 111.50 410.00 C 111.06 214.41 111.18 186.08 112.50 179.50 C 113.33 175.38 114.90 169.53 116.00 166.50 C 117.10 163.47 119.80 158.30 122.00 155.00 C 124.20 151.70 128.03 146.75 130.50 144.00 C 132.97 141.25 137.25 137.43 140.00 135.50 C 142.75 133.57 148.15 130.43 152.00 128.50 C 155.85 126.58 160.80 124.55 163.00 124.00 C 165.20 123.45 170.15 122.55 174.00 122.00"
       vector-effect="non-scaling-stroke"
       id="path8" />
    <path
       stroke="#FEFEFE"
       d="M 140.00 637.00 L 140.00 637.00 C 140.00 637.00 139.32 634.30 138.50 631.00 C 137.18 625.73 137.06 598.30 137.50 404.50 C 137.94 212.38 138.19 183.36 141.00 174.00 L 146.00 178.50 C 148.75 180.97 178.68 209.77 212.50 242.50 C 246.32 275.23 288.85 316.40 307.00 334.00 C 325.15 351.60 340.68 366.23 341.50 366.50 C 342.45 366.82 343.55 365.90 344.50 364.00 C 345.32 362.35 348.70 358.07 358.00 348.00 L 351.50 341.50 C 347.93 337.93 333.07 323.52 318.50 309.50 C 303.93 295.48 281.65 273.88 269.00 261.50 C 256.35 249.12 230.93 224.38 212.50 206.50 C 194.07 188.62 174.72 169.95 169.50 165.00 C 164.28 160.05 160.00 155.32 160.00 154.50 C 160.00 153.63 162.11 152.16 165.00 151.00 C 167.75 149.90 172.47 148.55 175.50 148.00 C 179.13 147.34 294.32 147.17 514.50 147.50 C 844.65 147.99 848.06 148.02 854.00 150.00 C 857.30 151.10 860.45 152.68 861.00 153.50 C 861.78 154.68 860.17 156.83 853.50 163.50 C 848.83 168.18 829.25 187.30 810.00 206.00 C 790.75 224.70 752.27 262.05 724.50 289.00 C 696.73 315.95 653.08 358.25 627.50 383.00 C 601.92 407.75 574.25 434.52 566.00 442.50 C 557.75 450.48 551.00 457.45 551.00 458.00 C 551.00 458.55 553.48 460.80 562.00 467.00 L 571.50 462.00 C 576.73 459.25 583.25 456.55 586.00 456.00 C 590.69 455.06 592.00 454.00 623.00 423.00 L 636.00 435.50 C 643.15 442.38 671.05 469.60 698.00 496.00 C 724.95 522.40 773.10 569.65 863.00 658.00 L 861.00 660.00 C 859.90 661.10 856.98 662.67 854.50 663.50 C 850.55 664.82 809.10 665.06 514.00 665.50 C 291.82 665.83 176.48 665.66 173.50 665.00 C 171.03 664.45 166.75 663.10 164.00 662.00 C 161.25 660.90 159.00 659.55 159.00 659.00 C 159.00 658.45 174.53 642.70 193.50 624.00 C 212.47 605.30 239.47 578.75 253.50 565.00 C 267.52 551.25 291.15 528.08 306.00 513.50 C 320.85 498.93 337.95 482.27 344.00 476.50 C 350.05 470.73 355.00 465.32 355.00 464.50 C 355.00 463.68 353.88 462.10 352.50 461.00 C 351.12 459.90 347.98 455.85 345.50 452.00 C 343.02 448.15 340.77 444.77 340.50 444.50 C 340.23 444.23 329.43 454.35 316.50 467.00 C 303.57 479.65 259.25 523.08 143.00 637.00"
       vector-effect="non-scaling-stroke"
       id="path10" />
    <path
       stroke="#FEFEFE"
       d="M 861.50 191.50 C 871.12 181.88 879.45 174.00 880.00 174.00 C 880.55 174.00 881.67 176.25 882.50 179.00 C 883.81 183.36 884.06 212.21 884.50 403.00 C 884.94 595.03 884.82 622.92 883.50 629.50 C 882.67 633.62 881.55 637.23 881.00 637.50 C 880.45 637.77 873.48 631.70 865.50 624.00 C 857.52 616.30 824.45 583.90 792.00 552.00 C 759.55 520.10 720.85 482.07 706.00 467.50 C 691.15 452.93 670.90 432.90 643.00 405.00 L 656.50 391.50 C 663.92 384.07 701.27 347.62 739.50 310.50 C 777.73 273.38 816.88 235.35 826.50 226.00 C 836.12 216.65 851.88 201.12 861.50 191.50"
       vector-effect="non-scaling-stroke"
       id="path12" />
    <path
       stroke="#1B3A59"
       d="M 593.00 219.50 C 594.10 219.22 598.38 219.00 602.50 219.00 C 606.62 219.00 612.92 219.68 616.50 220.50 C 620.08 221.32 625.92 223.35 629.50 225.00 C 634.22 227.18 638.19 230.19 644.00 236.00 C 649.62 241.62 653.04 246.08 655.50 251.00 C 657.42 254.85 659.67 261.38 660.50 265.50 C 661.47 270.35 661.82 276.01 661.50 281.50 C 661.17 287.17 660.17 292.17 658.50 296.50 C 657.12 300.07 654.88 305.02 653.50 307.50 C 652.12 309.98 648.08 314.93 644.50 318.50 C 640.92 322.07 635.98 326.12 633.50 327.50 C 631.02 328.88 626.08 331.12 622.50 332.50 C 618.00 334.23 613.23 335.15 607.00 335.50 C 602.05 335.77 595.08 335.55 591.50 335.00 C 587.92 334.45 582.08 332.65 578.50 331.00 C 574.92 329.35 569.52 326.20 561.00 320.00 L 527.50 343.00 C 509.07 355.65 487.70 370.27 480.00 375.50 C 470.21 382.14 466.15 385.45 466.50 386.50 C 466.77 387.32 467.68 390.70 468.50 394.00 C 469.32 397.30 470.00 403.38 470.00 407.50 C 470.00 411.62 469.32 417.70 468.50 421.00 C 467.68 424.30 467.23 427.23 467.50 427.50 C 467.77 427.77 474.30 432.05 482.00 437.00 C 489.70 441.95 507.02 453.20 520.50 462.00 C 533.98 470.80 549.05 480.70 563.00 490.00 L 570.00 484.50 C 574.91 480.64 579.24 478.25 584.50 476.50 C 591.02 474.33 593.77 474.00 605.50 474.00 C 616.33 474.00 620.19 474.40 625.00 476.00 C 628.30 477.10 634.15 480.02 638.00 482.50 C 641.85 484.98 647.02 489.25 649.50 492.00 C 651.98 494.75 655.80 500.82 658.00 505.50 C 660.20 510.18 662.45 516.48 663.00 519.50 C 663.55 522.52 663.77 529.50 663.50 535.00 C 663.18 541.38 662.28 546.99 661.00 550.50 C 659.90 553.52 656.98 559.15 654.50 563.00 C 651.96 566.95 647.38 572.18 644.00 575.00 C 640.70 577.75 635.75 581.12 633.00 582.50 C 630.25 583.88 624.62 585.90 620.50 587.00 C 616.38 588.10 610.08 589.00 606.50 589.00 C 602.92 589.00 597.08 588.33 593.50 587.50 C 589.92 586.67 583.62 584.42 579.50 582.50 C 573.83 579.86 570.17 577.17 564.50 571.50 C 558.57 565.57 556.16 562.22 553.00 555.50 C 550.80 550.83 548.55 544.52 548.00 541.50 C 547.45 538.48 547.00 533.52 547.00 530.50 C 547.00 527.48 547.45 522.75 548.00 520.00 C 548.55 517.25 549.00 514.55 549.00 514.00 C 549.00 513.45 545.62 510.52 541.50 507.50 C 537.38 504.48 519.15 492.32 501.00 480.50 C 482.85 468.68 464.62 456.75 460.50 454.00 C 456.38 451.25 452.77 449.00 452.50 449.00 C 452.23 449.00 449.75 450.80 447.00 453.00 C 444.25 455.20 439.75 458.12 437.00 459.50 C 434.25 460.88 429.52 462.68 426.50 463.50 C 423.24 464.39 416.72 465.00 410.50 465.00 C 402.83 465.00 398.25 464.46 393.50 463.00 C 389.93 461.90 384.30 459.20 381.00 457.00 C 377.70 454.80 372.98 451.20 370.50 449.00 C 368.02 446.80 364.20 442.30 362.00 439.00 C 359.80 435.70 357.10 430.52 356.00 427.50 C 354.62 423.70 353.85 418.45 353.50 410.50 C 353.23 404.18 353.45 396.52 354.00 393.50 C 354.55 390.48 356.57 384.85 358.50 381.00 C 360.43 377.15 363.80 371.98 366.00 369.50 C 368.20 367.02 372.25 363.20 375.00 361.00 C 377.75 358.80 382.25 355.88 385.00 354.50 C 387.75 353.12 392.70 351.32 396.00 350.50 C 399.30 349.68 406.05 349.00 411.00 349.00 C 415.95 349.00 422.48 349.68 425.50 350.50 C 428.52 351.32 433.48 353.12 436.50 354.50 C 439.52 355.88 444.02 358.57 451.00 364.00 L 472.00 349.50 C 483.55 341.52 504.70 326.90 519.00 317.00 C 533.30 307.10 545.45 298.55 546.00 298.00 C 546.67 297.33 546.50 294.67 545.50 290.00 C 544.52 285.41 544.17 280.08 544.50 274.50 C 544.77 269.82 545.90 263.30 547.00 260.00 C 548.10 256.70 550.35 251.53 552.00 248.50 C 553.65 245.47 557.02 240.75 559.50 238.00 C 561.98 235.25 567.15 230.97 571.00 228.50 C 574.85 226.03 580.92 223.10 584.50 222.00 C 588.08 220.90 591.90 219.78 593.00 219.50"
       vector-effect="non-scaling-stroke"
       id="path14" />
    <path
       stroke="#B6C2C9"
       d="M 140.00 637.00 L 140.00 637.00 C 140.00 637.00 140.22 637.00 140.50 637.00 C 140.78 637.00 141.45 637.00 143.00 637.00"
       vector-effect="non-scaling-stroke"
       id="path16" />
    <path
       stroke="#B6C2C9"
       d="M 143.00 637.00 L 143.00 637.00 C 143.00 637.00 142.55 637.45 142.00 638.00 C 141.33 638.67 140.83 638.67 140.00 637.00"
       vector-effect="non-scaling-stroke"
       id="path18" />
    <path
       stroke="#FDFEFE"
       d="M 181.00 786.50 C 184.54 785.17 222.62 785.06 509.00 785.50 C 830.28 786.00 833.04 786.02 837.50 788.00 C 839.98 789.10 843.35 791.58 845.00 793.50 C 846.65 795.42 848.90 798.80 850.00 801.00 C 851.92 804.85 852.00 807.00 852.00 909.00 L 849.50 914.00 C 848.00 917.00 845.00 920.60 842.00 923.00 C 839.01 925.39 834.79 927.60 831.50 928.50 C 826.65 929.82 788.33 929.94 185.00 929.00 L 179.50 926.50 C 176.47 925.12 172.65 922.65 171.00 921.00 C 169.35 919.35 166.88 915.52 163.00 907.00 L 163.00 807.00 L 165.50 801.50 C 166.97 798.27 169.86 794.35 172.50 792.00 C 174.97 789.80 178.80 787.33 181.00 786.50"
       vector-effect="non-scaling-stroke"
       id="path20" />
    <path
       stroke="#88C0E3"
       d="M 184.50 790.50 C 188.48 789.17 226.33 789.06 829.00 790.00 L 834.50 792.50 C 838.04 794.11 841.07 796.43 843.00 799.00 C 844.65 801.20 846.67 805.48 847.50 808.50 C 848.77 813.15 848.92 821.11 848.50 860.00 C 848.09 897.85 847.73 906.62 846.50 909.50 C 845.67 911.42 843.65 914.58 842.00 916.50 C 840.35 918.42 836.75 921.12 829.00 925.00 L 507.50 925.00 C 188.00 925.00 185.98 924.99 182.00 923.00 C 179.80 921.90 176.65 919.88 175.00 918.50 C 173.35 917.12 170.88 913.75 167.00 906.00 L 167.00 857.50 C 167.00 816.61 167.24 808.45 168.50 805.50 C 169.32 803.58 170.90 800.88 172.00 799.50 C 173.10 798.12 175.35 795.88 177.00 794.50 C 178.65 793.12 182.03 791.33 184.50 790.50"
       vector-effect="non-scaling-stroke"
       id="path22" />
    <path
       stroke="#FDFEFD"
       d="M 279.00 819.00 L 292.00 819.00 L 292.00 844.00 L 295.00 841.50 C 296.85 839.96 299.73 838.81 302.50 838.50 C 304.98 838.23 308.57 838.23 310.50 838.50 C 312.43 838.77 315.57 840.35 317.50 842.00 C 319.43 843.65 321.45 846.58 322.00 848.50 C 322.55 850.42 323.00 860.33 323.00 889.00 L 317.50 889.50 C 314.48 889.77 311.55 889.77 311.00 889.50 C 310.39 889.20 310.00 882.17 310.00 871.50 C 310.00 855.33 309.85 853.85 308.00 852.00 C 306.59 850.59 304.67 850.00 301.50 850.00 C 299.02 850.00 295.88 850.67 292.00 853.00 L 292.00 889.00 L 285.50 889.00 C 281.93 889.00 279.00 888.77 279.00 888.50 C 279.00 888.23 279.00 872.48 279.00 819.00"
       vector-effect="non-scaling-stroke"
       id="path24" />
    <path
       stroke="#FDFDFD"
       d="M 633.00 819.00 L 646.00 819.00 L 647.00 878.00 L 649.50 878.50 C 651.80 878.96 652.00 879.43 652.00 890.00 L 645.50 889.50 C 641.92 889.23 638.10 888.33 637.00 887.50 C 635.90 886.67 634.55 884.88 634.00 883.50 C 633.41 882.02 633.00 868.33 633.00 819.00"
       vector-effect="non-scaling-stroke"
       id="path26" />
    <path
       stroke="#FDFEFD"
       d="M 231.50 822.00 C 232.91 821.44 238.37 821.22 244.00 821.50 C 250.38 821.82 255.99 822.72 259.50 824.00 C 262.83 825.21 265.00 826.59 265.00 827.50 C 265.00 828.33 264.10 830.80 263.00 833.00 C 261.67 835.67 260.50 836.83 259.50 836.50 C 258.68 836.23 255.53 835.10 252.50 834.00 C 248.40 832.51 245.47 832.13 241.00 832.50 C 237.70 832.77 234.10 833.67 233.00 834.50 C 231.67 835.50 231.00 837.17 231.00 839.50 C 231.00 841.67 231.76 843.76 233.00 845.00 C 234.10 846.10 237.47 847.67 240.50 848.50 C 243.53 849.33 248.47 850.67 251.50 851.50 C 254.53 852.33 258.35 854.12 260.00 855.50 C 261.65 856.88 263.90 859.35 265.00 861.00 C 266.44 863.17 267.00 865.67 267.00 870.00 C 267.00 873.33 266.33 877.33 265.50 879.00 C 264.68 880.65 262.65 883.12 261.00 884.50 C 259.35 885.88 255.97 887.67 253.50 888.50 C 250.20 889.60 246.34 889.87 239.00 889.50 C 231.21 889.11 227.78 888.45 223.50 886.50 C 220.47 885.12 217.55 883.33 217.00 882.50 C 216.29 881.43 216.58 879.70 220.00 872.00 L 226.50 875.00 C 230.47 876.83 235.34 878.19 239.00 878.50 C 242.30 878.77 246.12 878.77 247.50 878.50 C 248.88 878.23 250.90 877.10 252.00 876.00 C 253.11 874.89 254.00 872.67 254.00 871.00 C 254.00 869.00 253.17 867.33 251.50 866.00 C 250.12 864.90 247.65 863.55 246.00 863.00 C 244.35 862.45 239.85 861.10 236.00 860.00 C 232.15 858.90 227.65 856.88 226.00 855.50 C 224.35 854.12 221.88 851.65 220.50 850.00 C 218.20 847.23 218.04 846.41 218.50 839.50 C 218.85 834.31 219.62 831.07 221.00 829.00 C 222.10 827.35 224.35 825.33 226.00 824.50 C 227.65 823.67 230.12 822.55 231.50 822.00"
       vector-effect="non-scaling-stroke"
       id="path28" />
    <path
       stroke="#FDFEFE"
       d="M 508.00 822.00 L 521.00 822.00 L 521.00 849.00 L 550.00 849.00 L 550.00 822.00 L 563.00 822.00 L 563.00 827.50 C 563.00 830.52 563.23 845.60 564.00 889.00 L 550.00 889.00 L 550.00 860.00 L 521.00 860.00 L 521.00 889.00 L 514.50 889.00 C 510.93 889.00 508.00 888.77 508.00 888.50 C 508.00 888.23 508.00 873.15 508.00 822.00"
       vector-effect="non-scaling-stroke"
       id="path30" />
    <path
       stroke="#FDFEFE"
       d="M 348.50 839.00 C 350.43 838.45 354.93 838.23 358.50 838.50 C 363.06 838.85 366.19 839.75 369.00 841.50 C 371.34 842.96 373.62 845.45 374.50 847.50 C 375.58 850.03 376.14 856.27 377.00 889.00 L 372.00 889.00 C 369.25 889.00 366.77 889.00 366.50 889.00 C 366.23 889.00 365.77 888.10 365.50 887.00 C 365.23 885.90 364.77 885.00 364.50 885.00 C 364.23 885.00 362.65 885.90 361.00 887.00 C 359.09 888.28 355.64 889.18 351.50 889.50 C 346.98 889.85 343.93 889.54 341.50 888.50 C 339.48 887.64 337.15 885.52 336.00 883.50 C 334.73 881.28 334.00 878.17 334.00 875.00 C 334.00 871.67 334.67 869.00 336.00 867.00 C 337.10 865.35 339.80 863.10 342.00 862.00 C 344.75 860.62 348.81 859.84 364.00 859.00 L 364.00 856.00 C 364.00 854.33 363.11 852.11 362.00 851.00 C 360.53 849.53 358.67 849.00 355.00 849.00 C 352.25 849.00 348.20 849.67 346.00 850.50 C 343.80 851.33 341.55 852.00 341.00 852.00 C 340.45 852.00 339.32 850.42 338.50 848.50 C 337.68 846.58 337.00 844.55 337.00 844.00 C 337.00 843.45 338.80 842.33 341.00 841.50 C 343.20 840.67 346.57 839.55 348.50 839.00"
       vector-effect="non-scaling-stroke"
       id="path32" />
    <path
       stroke="#FDFEFD"
       d="M 409.00 839.50 C 410.78 838.61 413.43 838.20 415.50 838.50 C 418.83 838.98 419.00 839.19 419.00 843.00 C 419.00 845.20 418.77 847.67 418.50 848.50 C 418.14 849.57 416.56 850.00 413.00 850.00 C 409.00 850.00 407.50 850.50 405.50 852.50 C 403.03 854.97 403.00 855.20 403.00 889.00 L 390.00 889.00 L 390.00 839.00 L 395.50 839.00 C 400.83 839.00 401.02 839.09 401.50 842.00 C 401.77 843.65 402.45 845.00 403.00 845.00 C 403.55 845.00 404.45 844.10 405.00 843.00 C 405.55 841.90 407.35 840.33 409.00 839.50"
       vector-effect="non-scaling-stroke"
       id="path34" />
    <path
       stroke="#FDFEFD"
       d="M 440.00 839.00 C 441.65 838.45 445.93 838.23 449.50 838.50 C 453.35 838.80 457.43 839.81 459.50 841.00 C 461.43 842.10 464.35 844.80 466.00 847.00 C 468.24 849.98 469.25 852.78 470.00 858.00 C 470.55 861.85 470.77 865.67 470.50 866.50 C 470.08 867.75 467.33 868.00 454.00 868.00 C 444.33 868.00 437.80 868.40 437.50 869.00 C 437.23 869.55 437.90 871.80 439.00 874.00 C 440.10 876.20 442.12 878.45 443.50 879.00 C 444.88 879.55 447.80 880.00 450.00 880.00 C 452.20 880.00 455.80 879.10 462.00 876.00 L 465.00 878.00 C 466.82 879.21 467.80 880.59 467.50 881.50 C 467.23 882.33 465.20 884.35 463.00 886.00 C 460.80 887.65 456.75 889.45 454.00 890.00 C 450.67 890.67 447.33 890.67 444.00 890.00 C 441.25 889.45 437.20 887.65 435.00 886.00 C 432.80 884.35 429.88 881.20 428.50 879.00 C 426.47 875.75 425.91 873.32 425.50 866.00 C 425.09 858.54 425.34 856.15 427.00 852.00 C 428.18 849.05 430.64 845.56 433.00 843.50 C 435.20 841.58 438.35 839.55 440.00 839.00"
       vector-effect="non-scaling-stroke"
       id="path36" />
    <path
       stroke="#FDFEFD"
       d="M 591.00 839.00 C 592.65 838.45 596.25 838.00 599.00 838.00 C 601.75 838.00 605.35 838.45 607.00 839.00 C 608.65 839.55 611.58 841.12 613.50 842.50 C 615.42 843.88 617.90 846.80 619.00 849.00 C 620.23 851.46 621.19 855.88 622.00 868.00 L 589.00 868.00 L 589.00 870.50 C 589.00 871.94 590.27 874.27 592.00 876.00 C 594.40 878.40 596.10 879.10 600.50 879.50 C 605.31 879.94 606.38 879.69 612.00 875.00 L 616.00 878.00 C 619.39 880.55 619.85 881.30 619.00 883.00 C 618.45 884.10 615.52 886.12 612.50 887.50 C 608.44 889.35 605.30 890.00 600.50 890.00 C 595.70 890.00 592.56 889.35 588.50 887.50 C 584.54 885.70 582.30 883.88 580.50 881.00 C 579.12 878.80 577.55 874.98 577.00 872.50 C 576.45 870.02 576.23 864.85 576.50 861.00 C 576.79 856.92 577.83 852.33 579.00 850.00 C 580.10 847.80 582.58 844.65 584.50 843.00 C 586.42 841.35 589.35 839.55 591.00 839.00"
       vector-effect="non-scaling-stroke"
       id="path38" />
    <path
       stroke="#FDFEFD"
       d="M 680.00 839.50 C 682.10 838.45 684.81 838.15 689.00 838.50 C 693.00 838.83 696.33 839.83 699.00 841.50 C 701.67 843.17 703.67 845.50 705.00 848.50 C 706.21 851.23 707.20 856.15 707.50 861.00 C 707.77 865.40 707.55 871.48 707.00 874.50 C 706.33 878.17 705.00 881.17 703.00 883.50 C 701.35 885.42 698.65 887.67 697.00 888.50 C 695.33 889.33 691.33 890.00 688.00 890.00 C 683.83 890.00 680.93 889.39 675.00 886.00 L 675.00 909.00 L 662.00 909.00 L 662.00 880.00 C 662.00 864.05 662.00 848.52 662.00 840.00 L 667.50 839.50 C 672.83 839.02 673.00 839.08 673.00 841.50 C 673.00 842.88 673.45 844.00 674.00 844.00 C 674.55 844.00 675.45 843.33 676.00 842.50 C 676.55 841.67 678.35 840.33 680.00 839.50"
       vector-effect="non-scaling-stroke"
       id="path40" />
    <path
       stroke="#FCFDFD"
       d="M 732.00 839.00 C 733.65 838.45 738.15 838.23 742.00 838.50 C 747.12 838.87 750.08 839.67 753.00 841.50 C 755.27 842.92 758.08 845.95 759.50 848.50 C 761.32 851.77 762.14 855.05 763.00 868.00 L 746.00 868.00 C 735.33 868.00 729.00 868.37 729.00 869.00 C 729.00 869.55 729.67 871.58 730.50 873.50 C 731.35 875.48 733.30 877.65 735.00 878.50 C 737.00 879.50 739.67 879.83 743.00 879.50 C 745.86 879.21 749.07 878.14 753.00 875.00 L 761.00 881.00 L 759.00 883.50 C 757.90 884.88 754.98 886.90 752.50 888.00 C 749.39 889.38 745.83 890.00 741.00 890.00 C 737.15 890.00 732.20 889.33 730.00 888.50 C 727.80 887.67 724.42 885.20 722.50 883.00 C 720.41 880.62 718.60 877.18 718.00 874.50 C 717.45 872.02 717.00 866.85 717.00 863.00 C 717.00 858.17 717.62 854.61 719.00 851.50 C 720.10 849.02 722.80 845.42 725.00 843.50 C 727.20 841.58 730.35 839.55 732.00 839.00"
       vector-effect="non-scaling-stroke"
       id="path42" />
    <path
       stroke="#FDFDFD"
       d="M 793.00 839.50 C 794.65 838.67 797.80 838.00 800.00 838.00 C 803.78 838.00 804.00 838.17 804.00 841.00 C 804.00 842.65 803.77 845.35 803.50 847.00 C 803.03 849.81 802.72 850.00 798.50 850.00 C 796.02 850.00 792.65 850.67 791.00 851.50 C 789.35 852.33 787.77 853.67 787.50 854.50 C 787.23 855.33 787.00 863.42 787.00 889.00 L 774.00 889.00 L 774.00 839.00 L 779.50 839.00 C 784.83 839.00 785.02 839.09 785.50 842.00 C 785.77 843.65 786.45 845.00 787.00 845.00 C 787.55 845.00 788.45 844.10 789.00 843.00 C 789.55 841.90 791.35 840.33 793.00 839.50"
       vector-effect="non-scaling-stroke"
       id="path44" />
    <path
       stroke="#86BFE3"
       d="M 444.00 849.00 C 445.10 848.45 447.12 848.00 448.50 848.00 C 449.88 848.00 452.35 848.90 454.00 850.00 C 455.65 851.10 457.00 852.23 457.00 852.50 C 457.00 852.77 457.45 854.35 459.00 859.00 L 448.00 859.00 C 437.50 859.00 437.02 858.91 437.50 857.00 C 437.77 855.90 438.90 853.88 440.00 852.50 C 441.10 851.12 442.90 849.55 444.00 849.00"
       vector-effect="non-scaling-stroke"
       id="path46" />
    <path
       stroke="#87C0E4"
       d="M 595.00 849.00 C 596.10 848.45 597.90 848.00 599.00 848.00 C 600.10 848.00 602.35 848.67 604.00 849.50 C 605.65 850.33 607.45 851.67 608.00 852.50 C 608.55 853.33 609.23 855.12 610.00 859.00 L 588.00 859.00 L 589.00 856.50 C 589.55 855.12 590.67 853.10 591.50 852.00 C 592.33 850.90 593.90 849.55 595.00 849.00"
       vector-effect="non-scaling-stroke"
       id="path48" />
    <path
       stroke="#87C0E4"
       d="M 735.50 849.50 C 737.48 848.31 738.93 848.21 742.50 849.00 C 745.58 849.68 747.47 850.79 748.50 852.50 C 749.33 853.88 750.23 855.90 750.50 857.00 C 750.97 858.88 750.38 859.03 741.00 859.50 C 734.97 859.80 730.60 859.60 730.00 859.00 C 729.33 858.33 729.67 856.83 731.00 854.50 C 732.10 852.58 734.12 850.33 735.50 849.50"
       vector-effect="non-scaling-stroke"
       id="path50" />
    <path
       stroke="#88C1E3"
       d="M 677.50 851.00 C 678.93 849.86 681.50 849.00 683.50 849.00 C 685.42 849.00 688.12 849.45 689.50 850.00 C 690.88 850.55 692.67 852.57 693.50 854.50 C 694.33 856.42 695.00 859.35 695.00 861.00 C 695.00 862.65 695.00 866.02 695.00 868.50 C 695.00 872.31 694.46 873.54 691.50 876.50 C 688.30 879.70 687.61 879.96 683.50 879.50 C 681.02 879.23 678.10 878.33 677.00 877.50 C 675.20 876.15 675.00 874.83 675.00 864.50 C 675.00 853.43 675.09 852.92 677.50 851.00"
       vector-effect="non-scaling-stroke"
       id="path52" />
    <path
       stroke="#85BFE3"
       d="M 351.50 868.00 C 352.88 867.45 356.25 867.00 364.00 867.00 L 364.00 871.50 C 364.00 875.10 363.50 876.40 361.50 878.00 C 359.83 879.33 357.50 880.00 354.50 880.00 C 352.02 880.00 349.10 879.33 348.00 878.50 C 346.90 877.67 346.00 875.88 346.00 874.50 C 346.00 873.12 346.68 871.33 347.50 870.50 C 348.32 869.67 350.12 868.55 351.50 868.00"
       vector-effect="non-scaling-stroke"
       id="path54" />
    <path
       stroke="#FEFEFE"
       d="M 0.00 938.00 L 0.00 938.00 C 0.00 938.00 0.67 940.92 1.50 944.50 C 2.33 948.08 3.90 953.92 5.00 957.50 C 6.10 961.08 8.35 966.70 10.00 970.00 C 11.65 973.30 14.80 978.70 17.00 982.00 C 19.20 985.30 24.38 991.38 28.50 995.50 C 32.62 999.62 39.15 1005.02 43.00 1007.50 C 46.85 1009.98 52.92 1013.35 56.50 1015.00 C 60.08 1016.65 67.28 1019.12 72.50 1020.50 C 77.72 1021.88 82.90 1023.23 86.00 1024.00"
       vector-effect="non-scaling-stroke"
       id="path56" />
    <path
       stroke="#FEFEFE"
       d="M 938.00 1024.00 L 938.00 1024.00 C 938.00 1024.00 940.70 1023.33 944.00 1022.50 C 947.30 1021.67 952.92 1020.10 956.50 1019.00 C 960.08 1017.90 966.15 1015.42 970.00 1013.50 C 973.85 1011.58 979.02 1008.65 981.50 1007.00 C 983.98 1005.35 988.25 1002.20 991.00 1000.00 C 993.75 997.80 998.92 992.40 1002.50 988.00 C 1006.08 983.60 1010.80 976.40 1013.00 972.00 C 1015.20 967.60 1017.67 961.98 1018.50 959.50 C 1019.33 957.02 1020.90 951.17 1024.00 938.00"
       vector-effect="non-scaling-stroke"
       id="path58" />
  </g>
  <path
     fill="#b7c3cf"
     d="m 86,0 h 854.5 0.5 v 0 c 7.75,2.33 12.92,3.9 16.5,5 3.58,1.1 9.2,3.35 12.5,5 3.3,1.65 8.7,4.8 12,7 3.3,2.2 9.38,7.38 13.5,11.5 4.12,4.12 9.3,10.2 11.5,13.5 2.2,3.3 5.58,9.15 7.5,13 1.92,3.85 3.95,8.58 4.5,10.5 0.55,1.92 1.9,7.33 3,12 1.1,4.67 2,8.5 2,8.5 v 0 851.5 0.5 0 c -3.1,13.17 -4.67,19.02 -5.5,21.5 -0.83,2.48 -3.3,8.1 -5.5,12.5 -2.2,4.4 -6.92,11.6 -10.5,16 -3.58,4.4 -8.75,9.8 -11.5,12 -2.75,2.2 -7.02,5.35 -9.5,7 -2.48,1.65 -7.65,4.58 -11.5,6.5 -3.85,1.92 -9.92,4.4 -13.5,5.5 -3.58,1.1 -9.2,2.67 -12.5,3.5 -3.3,0.83 -6,1.5 -6,1.5 v 0 H 86.5 86 v 0 c -3.1,-0.77 -8.28,-2.12 -13.5,-3.5 -5.22,-1.38 -12.42,-3.85 -16,-5.5 -3.58,-1.65 -9.65,-5.02 -13.5,-7.5 -3.85,-2.48 -10.38,-7.88 -14.5,-12 C 24.38,991.38 19.2,985.3 17,982 14.8,978.7 11.65,973.3 10,970 8.35,966.7 6.1,961.08 5,957.5 3.9,953.92 2.33,948.08 1.5,944.5 0.67,940.92 0,938 0,938 V 938 87.5 87 87 87 C 0,87 0.67,83.62 1.5,79.5 2.33,75.38 3.9,69.08 5,65.5 6.1,61.92 8.12,56.75 9.5,54 10.88,51.25 13.8,46.3 16,43 18.2,39.7 23.6,33.4 28,29 32.4,24.6 38.7,19.2 42,17 45.3,14.8 51.83,11.2 56.5,9 61.17,6.8 68.6,4.1 73,3 77.4,1.9 82.12,0.78 86,0 Z m 289.5,75 c -221.67,0.98 -226.66,1.04 -234,3 -4.12,1.1 -10.88,3.58 -15,5.5 -4.12,1.92 -10.2,5.3 -13.5,7.5 -3.3,2.2 -8.25,6.03 -11,8.5 -2.75,2.47 -7.25,7.42 -10,11 -2.75,3.58 -6.35,8.75 -8,11.5 -1.65,2.75 -4.12,7.7 -5.5,11 -1.38,3.3 -3.4,9.38 -4.5,13.5 -1.97,7.38 -2.01,11.49 -2.5,254 -0.33,161.06 -0.15,249.62 0.5,255.5 0.55,4.95 2.12,12.38 3.5,16.5 1.38,4.12 4.3,11.1 6.5,15.5 2.2,4.4 6.92,11.6 10.5,16 3.58,4.4 9.42,10.25 13,13 3.58,2.75 8.75,6.35 11.5,8 2.75,1.65 8.83,4.58 13.5,6.5 4.68,1.92 12.55,4.17 17.5,5 7.92,1.32 52.03,1.44 368.5,1 L 876,737 c 13.17,-3.88 20.15,-6.58 24,-8.5 3.85,-1.92 9.02,-4.85 11.5,-6.5 2.48,-1.65 6.98,-5.25 10,-8 3.02,-2.75 7.75,-7.7 10.5,-11 2.75,-3.3 6.58,-8.92 8.5,-12.5 1.92,-3.58 4.62,-9.2 6,-12.5 1.38,-3.3 3.17,-9.38 4,-13.5 1.31,-6.55 1.5,-39.39 1.5,-258.5 0,-247.5 -0.03,-251.12 -2,-259.5 -1.1,-4.68 -3.58,-11.88 -5.5,-16 -1.92,-4.12 -5.08,-9.97 -7,-13 -1.92,-3.03 -6.2,-8.42 -9.5,-12 -3.3,-3.58 -8.7,-8.53 -12,-11 -3.3,-2.47 -8.92,-6.08 -12.5,-8 -3.58,-1.92 -9.42,-4.62 -13,-6 -3.58,-1.38 -9.88,-3.17 -14,-4 -6.36,-1.27 -27.77,-1.58 -141,-2 -73.42,-0.28 -235.43,-0.05 -360,0.5 z M 181,786.5 c -2.2,0.83 -6.03,3.3 -8.5,5.5 -2.64,2.35 -5.53,6.27 -7,9.5 L 163,807 v 100 c 3.88,8.52 6.35,12.35 8,14 1.65,1.65 5.47,4.12 8.5,5.5 l 5.5,2.5 c 603.33,0.94 641.65,0.82 646.5,-0.5 3.29,-0.9 7.51,-3.11 10.5,-5.5 3,-2.4 6,-6 7.5,-9 l 2.5,-5 c 0,-102 -0.08,-104.15 -2,-108 -1.1,-2.2 -3.35,-5.58 -5,-7.5 -1.65,-1.92 -5.02,-4.4 -7.5,-5.5 -4.46,-1.98 -7.22,-2 -328.5,-2.5 -286.38,-0.44 -324.46,-0.33 -328,1 z"
     fill-rule="evenodd"
     id="path66"
     sodipodi:nodetypes="cccsssssssssccccsssssssssccccsssssssssccccccsssssssscccsssssscccsssssccscsssssscssssssssccccccccsccccsccsccc"
     style="display:inline;fill:url(#linearGradient3343);fill-opacity:1" />
  <path
     fill="#FDFDFD"
     d="M 375.50 75.00 C 500.07 74.45 662.08 74.22 735.50 74.50 C 848.73 74.92 870.14 75.23 876.50 76.50 C 880.62 77.33 886.92 79.12 890.50 80.50 C 894.08 81.88 899.92 84.58 903.50 86.50 C 907.08 88.42 912.70 92.03 916.00 94.50 C 919.30 96.97 924.70 101.92 928.00 105.50 C 931.30 109.08 935.58 114.47 937.50 117.50 C 939.42 120.53 942.58 126.38 944.50 130.50 C 946.42 134.62 948.90 141.82 950.00 146.50 C 951.97 154.88 952.00 158.50 952.00 406.00 C 952.00 625.11 951.81 657.95 950.50 664.50 C 949.67 668.62 947.88 674.70 946.50 678.00 C 945.12 681.30 942.42 686.92 940.50 690.50 C 938.58 694.08 934.75 699.70 932.00 703.00 C 929.25 706.30 924.52 711.25 921.50 714.00 C 918.48 716.75 913.98 720.35 911.50 722.00 C 909.02 723.65 903.85 726.58 900.00 728.50 C 896.15 730.42 889.17 733.12 876.00 737.00 L 516.50 737.50 C 200.03 737.94 155.92 737.82 148.00 736.50 C 143.05 735.67 135.18 733.42 130.50 731.50 C 125.83 729.58 119.75 726.65 117.00 725.00 C 114.25 723.35 109.08 719.75 105.50 717.00 C 101.92 714.25 96.08 708.40 92.50 704.00 C 88.92 699.60 84.20 692.40 82.00 688.00 C 79.80 683.60 76.88 676.62 75.50 672.50 C 74.12 668.38 72.55 660.95 72.00 656.00 C 71.35 650.12 71.17 561.56 71.50 400.50 C 71.99 157.99 72.03 153.88 74.00 146.50 C 75.10 142.38 77.12 136.30 78.50 133.00 C 79.88 129.70 82.35 124.75 84.00 122.00 C 85.65 119.25 89.25 114.08 92.00 110.50 C 94.75 106.92 99.25 101.97 102.00 99.50 C 104.75 97.03 109.70 93.20 113.00 91.00 C 116.30 88.80 122.38 85.42 126.50 83.50 C 130.62 81.58 137.38 79.10 141.50 78.00 C 148.84 76.04 153.83 75.98 375.50 75.00 Z M 174.00 122.00 C 170.15 122.55 165.20 123.45 163.00 124.00 C 160.80 124.55 155.85 126.58 152.00 128.50 C 148.15 130.43 142.75 133.57 140.00 135.50 C 137.25 137.43 132.97 141.25 130.50 144.00 C 128.03 146.75 124.20 151.70 122.00 155.00 C 119.80 158.30 117.10 163.47 116.00 166.50 C 114.90 169.53 113.33 175.38 112.50 179.50 C 111.18 186.08 111.06 214.41 111.50 410.00 C 111.94 604.04 112.19 633.71 113.50 638.50 C 114.33 641.52 116.58 647.38 118.50 651.50 C 120.42 655.62 124.03 661.70 126.50 665.00 C 128.97 668.30 133.47 673.02 136.50 675.50 C 139.53 677.98 145.15 681.58 149.00 683.50 C 152.85 685.42 159.15 687.90 163.00 689.00 C 169.94 690.98 173.00 691.00 511.50 691.00 L 853.00 691.00 C 864.62 687.12 871.15 684.20 875.00 682.00 C 878.85 679.80 884.48 675.75 887.50 673.00 C 890.52 670.25 895.02 665.08 897.50 661.50 C 899.98 657.92 903.12 652.52 904.50 649.50 C 905.88 646.48 907.67 641.08 908.50 637.50 C 909.82 631.79 909.94 603.37 909.50 403.50 L 909.00 176.00 C 905.12 165.15 902.42 159.30 900.50 156.00 C 898.58 152.70 893.62 146.62 889.50 142.50 C 885.28 138.28 878.94 133.25 875.00 131.00 C 871.15 128.80 865.30 126.10 862.00 125.00 C 858.70 123.90 852.40 122.55 848.00 122.00 C 842.81 121.35 724.17 121.00 510.50 121.00 C 296.17 121.00 178.55 121.35 174.00 122.00 Z"
     fill-rule="evenodd"
     id="path70" />
  <path
     fill="#1C3A59"
     d="M 174.00 122.00 C 178.55 121.35 296.17 121.00 510.50 121.00 C 724.17 121.00 842.81 121.35 848.00 122.00 C 852.40 122.55 858.70 123.90 862.00 125.00 C 865.30 126.10 871.15 128.80 875.00 131.00 C 878.94 133.25 885.28 138.28 889.50 142.50 C 893.62 146.62 898.58 152.70 900.50 156.00 C 902.42 159.30 905.12 165.15 909.00 176.00 L 909.50 403.50 C 909.94 603.37 909.82 631.79 908.50 637.50 C 907.67 641.08 905.88 646.48 904.50 649.50 C 903.12 652.52 899.98 657.92 897.50 661.50 C 895.02 665.08 890.52 670.25 887.50 673.00 C 884.48 675.75 878.85 679.80 875.00 682.00 C 871.15 684.20 864.62 687.12 853.00 691.00 L 511.50 691.00 C 173.00 691.00 169.94 690.98 163.00 689.00 C 159.15 687.90 152.85 685.42 149.00 683.50 C 145.15 681.58 139.53 677.98 136.50 675.50 C 133.47 673.02 128.97 668.30 126.50 665.00 C 124.03 661.70 120.42 655.62 118.50 651.50 C 116.58 647.38 114.33 641.52 113.50 638.50 C 112.19 633.71 111.94 604.04 111.50 410.00 C 111.06 214.41 111.18 186.08 112.50 179.50 C 113.33 175.38 114.90 169.53 116.00 166.50 C 117.10 163.47 119.80 158.30 122.00 155.00 C 124.20 151.70 128.03 146.75 130.50 144.00 C 132.97 141.25 137.25 137.43 140.00 135.50 C 142.75 133.57 148.15 130.43 152.00 128.50 C 155.85 126.58 160.80 124.55 163.00 124.00 C 165.20 123.45 170.15 122.55 174.00 122.00 Z M 140.00 637.00 C 140.83 638.67 141.33 638.67 142.00 638.00 C 142.55 637.45 143.00 637.00 143.00 637.00 L 143.00 637.00 C 259.25 523.08 303.57 479.65 316.50 467.00 C 329.43 454.35 340.23 444.23 340.50 444.50 C 340.77 444.77 343.02 448.15 345.50 452.00 C 347.98 455.85 351.12 459.90 352.50 461.00 C 353.88 462.10 355.00 463.68 355.00 464.50 C 355.00 465.32 350.05 470.73 344.00 476.50 C 337.95 482.27 320.85 498.93 306.00 513.50 C 291.15 528.08 267.52 551.25 253.50 565.00 C 239.47 578.75 212.47 605.30 193.50 624.00 C 174.53 642.70 159.00 658.45 159.00 659.00 C 159.00 659.55 161.25 660.90 164.00 662.00 C 166.75 663.10 171.03 664.45 173.50 665.00 C 176.48 665.66 291.82 665.83 514.00 665.50 C 809.10 665.06 850.55 664.82 854.50 663.50 C 856.98 662.67 859.90 661.10 861.00 660.00 L 863.00 658.00 C 773.10 569.65 724.95 522.40 698.00 496.00 C 671.05 469.60 643.15 442.38 636.00 435.50 L 623.00 423.00 C 592.00 454.00 590.69 455.06 586.00 456.00 C 583.25 456.55 576.73 459.25 571.50 462.00 L 562.00 467.00 C 553.48 460.80 551.00 458.55 551.00 458.00 C 551.00 457.45 557.75 450.48 566.00 442.50 C 574.25 434.52 601.92 407.75 627.50 383.00 C 653.08 358.25 696.73 315.95 724.50 289.00 C 752.27 262.05 790.75 224.70 810.00 206.00 C 829.25 187.30 848.83 168.18 853.50 163.50 C 860.17 156.83 861.78 154.68 861.00 153.50 C 860.45 152.68 857.30 151.10 854.00 150.00 C 848.06 148.02 844.65 147.99 514.50 147.50 C 294.32 147.17 179.13 147.34 175.50 148.00 C 172.47 148.55 167.75 149.90 165.00 151.00 C 162.11 152.16 160.00 153.63 160.00 154.50 C 160.00 155.32 164.28 160.05 169.50 165.00 C 174.72 169.95 194.07 188.62 212.50 206.50 C 230.93 224.38 256.35 249.12 269.00 261.50 C 281.65 273.88 303.93 295.48 318.50 309.50 C 333.07 323.52 347.93 337.93 351.50 341.50 L 358.00 348.00 C 348.70 358.07 345.32 362.35 344.50 364.00 C 343.55 365.90 342.45 366.82 341.50 366.50 C 340.68 366.23 325.15 351.60 307.00 334.00 C 288.85 316.40 246.32 275.23 212.50 242.50 C 178.68 209.77 148.75 180.97 146.00 178.50 L 141.00 174.00 C 138.19 183.36 137.94 212.38 137.50 404.50 C 137.06 598.30 137.18 625.73 138.50 631.00 C 139.32 634.30 140.00 637.00 140.00 637.00 L 140.00 637.00 Z M 861.50 191.50 C 851.88 201.12 836.12 216.65 826.50 226.00 C 816.88 235.35 777.73 273.38 739.50 310.50 C 701.27 347.62 663.92 384.07 656.50 391.50 L 643.00 405.00 C 670.90 432.90 691.15 452.93 706.00 467.50 C 720.85 482.07 759.55 520.10 792.00 552.00 C 824.45 583.90 857.52 616.30 865.50 624.00 C 873.48 631.70 880.45 637.77 881.00 637.50 C 881.55 637.23 882.67 633.62 883.50 629.50 C 884.82 622.92 884.94 595.03 884.50 403.00 C 884.06 212.21 883.81 183.36 882.50 179.00 C 881.67 176.25 880.55 174.00 880.00 174.00 C 879.45 174.00 871.12 181.88 861.50 191.50 Z"
     fill-rule="evenodd"
     id="path72" />
  <path
     fill="#FEFEFE"
     d="M 143.00 637.00 C 141.45 637.00 140.78 637.00 140.50 637.00 C 140.22 637.00 140.00 637.00 140.00 637.00 L 140.00 637.00 L 140.00 637.00 C 140.00 637.00 139.32 634.30 138.50 631.00 C 137.18 625.73 137.06 598.30 137.50 404.50 C 137.94 212.38 138.19 183.36 141.00 174.00 L 146.00 178.50 C 148.75 180.97 178.68 209.77 212.50 242.50 C 246.32 275.23 288.85 316.40 307.00 334.00 C 325.15 351.60 340.68 366.23 341.50 366.50 C 342.45 366.82 343.55 365.90 344.50 364.00 C 345.32 362.35 348.70 358.07 358.00 348.00 L 351.50 341.50 C 347.93 337.93 333.07 323.52 318.50 309.50 C 303.93 295.48 281.65 273.88 269.00 261.50 C 256.35 249.12 230.93 224.38 212.50 206.50 C 194.07 188.62 174.72 169.95 169.50 165.00 C 164.28 160.05 160.00 155.32 160.00 154.50 C 160.00 153.63 162.11 152.16 165.00 151.00 C 167.75 149.90 172.47 148.55 175.50 148.00 C 179.13 147.34 294.32 147.17 514.50 147.50 C 844.65 147.99 848.06 148.02 854.00 150.00 C 857.30 151.10 860.45 152.68 861.00 153.50 C 861.78 154.68 860.17 156.83 853.50 163.50 C 848.83 168.18 829.25 187.30 810.00 206.00 C 790.75 224.70 752.27 262.05 724.50 289.00 C 696.73 315.95 653.08 358.25 627.50 383.00 C 601.92 407.75 574.25 434.52 566.00 442.50 C 557.75 450.48 551.00 457.45 551.00 458.00 C 551.00 458.55 553.48 460.80 562.00 467.00 L 571.50 462.00 C 576.73 459.25 583.25 456.55 586.00 456.00 C 590.69 455.06 592.00 454.00 623.00 423.00 L 636.00 435.50 C 643.15 442.38 671.05 469.60 698.00 496.00 C 724.95 522.40 773.10 569.65 863.00 658.00 L 861.00 660.00 C 859.90 661.10 856.98 662.67 854.50 663.50 C 850.55 664.82 809.10 665.06 514.00 665.50 C 291.82 665.83 176.48 665.66 173.50 665.00 C 171.03 664.45 166.75 663.10 164.00 662.00 C 161.25 660.90 159.00 659.55 159.00 659.00 C 159.00 658.45 174.53 642.70 193.50 624.00 C 212.47 605.30 239.47 578.75 253.50 565.00 C 267.52 551.25 291.15 528.08 306.00 513.50 C 320.85 498.93 337.95 482.27 344.00 476.50 C 350.05 470.73 355.00 465.32 355.00 464.50 C 355.00 463.68 353.88 462.10 352.50 461.00 C 351.12 459.90 347.98 455.85 345.50 452.00 C 343.02 448.15 340.77 444.77 340.50 444.50 C 340.23 444.23 329.43 454.35 316.50 467.00 C 303.57 479.65 259.25 523.08 143.00 637.00 Z M 593.00 219.50 C 591.90 219.78 588.08 220.90 584.50 222.00 C 580.92 223.10 574.85 226.03 571.00 228.50 C 567.15 230.97 561.98 235.25 559.50 238.00 C 557.02 240.75 553.65 245.47 552.00 248.50 C 550.35 251.53 548.10 256.70 547.00 260.00 C 545.90 263.30 544.77 269.82 544.50 274.50 C 544.17 280.08 544.52 285.41 545.50 290.00 C 546.50 294.67 546.67 297.33 546.00 298.00 C 545.45 298.55 533.30 307.10 519.00 317.00 C 504.70 326.90 483.55 341.52 472.00 349.50 L 451.00 364.00 C 444.02 358.57 439.52 355.88 436.50 354.50 C 433.48 353.12 428.52 351.32 425.50 350.50 C 422.48 349.68 415.95 349.00 411.00 349.00 C 406.05 349.00 399.30 349.68 396.00 350.50 C 392.70 351.32 387.75 353.12 385.00 354.50 C 382.25 355.88 377.75 358.80 375.00 361.00 C 372.25 363.20 368.20 367.02 366.00 369.50 C 363.80 371.98 360.43 377.15 358.50 381.00 C 356.57 384.85 354.55 390.48 354.00 393.50 C 353.45 396.52 353.23 404.18 353.50 410.50 C 353.85 418.45 354.62 423.70 356.00 427.50 C 357.10 430.52 359.80 435.70 362.00 439.00 C 364.20 442.30 368.02 446.80 370.50 449.00 C 372.98 451.20 377.70 454.80 381.00 457.00 C 384.30 459.20 389.93 461.90 393.50 463.00 C 398.25 464.46 402.83 465.00 410.50 465.00 C 416.72 465.00 423.24 464.39 426.50 463.50 C 429.52 462.68 434.25 460.88 437.00 459.50 C 439.75 458.12 444.25 455.20 447.00 453.00 C 449.75 450.80 452.23 449.00 452.50 449.00 C 452.77 449.00 456.38 451.25 460.50 454.00 C 464.62 456.75 482.85 468.68 501.00 480.50 C 519.15 492.32 537.38 504.48 541.50 507.50 C 545.62 510.52 549.00 513.45 549.00 514.00 C 549.00 514.55 548.55 517.25 548.00 520.00 C 547.45 522.75 547.00 527.48 547.00 530.50 C 547.00 533.52 547.45 538.48 548.00 541.50 C 548.55 544.52 550.80 550.83 553.00 555.50 C 556.16 562.22 558.57 565.57 564.50 571.50 C 570.17 577.17 573.83 579.86 579.50 582.50 C 583.62 584.42 589.92 586.67 593.50 587.50 C 597.08 588.33 602.92 589.00 606.50 589.00 C 610.08 589.00 616.38 588.10 620.50 587.00 C 624.62 585.90 630.25 583.88 633.00 582.50 C 635.75 581.12 640.70 577.75 644.00 575.00 C 647.38 572.18 651.96 566.95 654.50 563.00 C 656.98 559.15 659.90 553.52 661.00 550.50 C 662.28 546.99 663.18 541.38 663.50 535.00 C 663.77 529.50 663.55 522.52 663.00 519.50 C 662.45 516.48 660.20 510.18 658.00 505.50 C 655.80 500.82 651.98 494.75 649.50 492.00 C 647.02 489.25 641.85 484.98 638.00 482.50 C 634.15 480.02 628.30 477.10 625.00 476.00 C 620.19 474.40 616.33 474.00 605.50 474.00 C 593.77 474.00 591.02 474.33 584.50 476.50 C 579.24 478.25 574.91 480.64 570.00 484.50 L 563.00 490.00 C 549.05 480.70 533.98 470.80 520.50 462.00 C 507.02 453.20 489.70 441.95 482.00 437.00 C 474.30 432.05 467.77 427.77 467.50 427.50 C 467.23 427.23 467.68 424.30 468.50 421.00 C 469.32 417.70 470.00 411.62 470.00 407.50 C 470.00 403.38 469.32 397.30 468.50 394.00 C 467.68 390.70 466.77 387.32 466.50 386.50 C 466.15 385.45 470.21 382.14 480.00 375.50 C 487.70 370.27 509.07 355.65 527.50 343.00 L 561.00 320.00 C 569.52 326.20 574.92 329.35 578.50 331.00 C 582.08 332.65 587.92 334.45 591.50 335.00 C 595.08 335.55 602.05 335.77 607.00 335.50 C 613.23 335.15 618.00 334.23 622.50 332.50 C 626.08 331.12 631.02 328.88 633.50 327.50 C 635.98 326.12 640.92 322.07 644.50 318.50 C 648.08 314.93 652.12 309.98 653.50 307.50 C 654.88 305.02 657.12 300.07 658.50 296.50 C 660.17 292.17 661.17 287.17 661.50 281.50 C 661.82 276.01 661.47 270.35 660.50 265.50 C 659.67 261.38 657.42 254.85 655.50 251.00 C 653.04 246.08 649.62 241.62 644.00 236.00 C 638.19 230.19 634.22 227.18 629.50 225.00 C 625.92 223.35 620.08 221.32 616.50 220.50 C 612.92 219.68 606.62 219.00 602.50 219.00 C 598.38 219.00 594.10 219.22 593.00 219.50 Z"
     fill-rule="evenodd"
     id="path74" />
  <path
     fill="#FEFEFE"
     d="M 861.50 191.50 C 871.12 181.88 879.45 174.00 880.00 174.00 C 880.55 174.00 881.67 176.25 882.50 179.00 C 883.81 183.36 884.06 212.21 884.50 403.00 C 884.94 595.03 884.82 622.92 883.50 629.50 C 882.67 633.62 881.55 637.23 881.00 637.50 C 880.45 637.77 873.48 631.70 865.50 624.00 C 857.52 616.30 824.45 583.90 792.00 552.00 C 759.55 520.10 720.85 482.07 706.00 467.50 C 691.15 452.93 670.90 432.90 643.00 405.00 L 656.50 391.50 C 663.92 384.07 701.27 347.62 739.50 310.50 C 777.73 273.38 816.88 235.35 826.50 226.00 C 836.12 216.65 851.88 201.12 861.50 191.50 Z"
     fill-rule="evenodd"
     id="path76" />
  <path
     fill="#1B3A59"
     d="M 593.00 219.50 C 594.10 219.22 598.38 219.00 602.50 219.00 C 606.62 219.00 612.92 219.68 616.50 220.50 C 620.08 221.32 625.92 223.35 629.50 225.00 C 634.22 227.18 638.19 230.19 644.00 236.00 C 649.62 241.62 653.04 246.08 655.50 251.00 C 657.42 254.85 659.67 261.38 660.50 265.50 C 661.47 270.35 661.82 276.01 661.50 281.50 C 661.17 287.17 660.17 292.17 658.50 296.50 C 657.12 300.07 654.88 305.02 653.50 307.50 C 652.12 309.98 648.08 314.93 644.50 318.50 C 640.92 322.07 635.98 326.12 633.50 327.50 C 631.02 328.88 626.08 331.12 622.50 332.50 C 618.00 334.23 613.23 335.15 607.00 335.50 C 602.05 335.77 595.08 335.55 591.50 335.00 C 587.92 334.45 582.08 332.65 578.50 331.00 C 574.92 329.35 569.52 326.20 561.00 320.00 L 527.50 343.00 C 509.07 355.65 487.70 370.27 480.00 375.50 C 470.21 382.14 466.15 385.45 466.50 386.50 C 466.77 387.32 467.68 390.70 468.50 394.00 C 469.32 397.30 470.00 403.38 470.00 407.50 C 470.00 411.62 469.32 417.70 468.50 421.00 C 467.68 424.30 467.23 427.23 467.50 427.50 C 467.77 427.77 474.30 432.05 482.00 437.00 C 489.70 441.95 507.02 453.20 520.50 462.00 C 533.98 470.80 549.05 480.70 563.00 490.00 L 570.00 484.50 C 574.91 480.64 579.24 478.25 584.50 476.50 C 591.02 474.33 593.77 474.00 605.50 474.00 C 616.33 474.00 620.19 474.40 625.00 476.00 C 628.30 477.10 634.15 480.02 638.00 482.50 C 641.85 484.98 647.02 489.25 649.50 492.00 C 651.98 494.75 655.80 500.82 658.00 505.50 C 660.20 510.18 662.45 516.48 663.00 519.50 C 663.55 522.52 663.77 529.50 663.50 535.00 C 663.18 541.38 662.28 546.99 661.00 550.50 C 659.90 553.52 656.98 559.15 654.50 563.00 C 651.96 566.95 647.38 572.18 644.00 575.00 C 640.70 577.75 635.75 581.12 633.00 582.50 C 630.25 583.88 624.62 585.90 620.50 587.00 C 616.38 588.10 610.08 589.00 606.50 589.00 C 602.92 589.00 597.08 588.33 593.50 587.50 C 589.92 586.67 583.62 584.42 579.50 582.50 C 573.83 579.86 570.17 577.17 564.50 571.50 C 558.57 565.57 556.16 562.22 553.00 555.50 C 550.80 550.83 548.55 544.52 548.00 541.50 C 547.45 538.48 547.00 533.52 547.00 530.50 C 547.00 527.48 547.45 522.75 548.00 520.00 C 548.55 517.25 549.00 514.55 549.00 514.00 C 549.00 513.45 545.62 510.52 541.50 507.50 C 537.38 504.48 519.15 492.32 501.00 480.50 C 482.85 468.68 464.62 456.75 460.50 454.00 C 456.38 451.25 452.77 449.00 452.50 449.00 C 452.23 449.00 449.75 450.80 447.00 453.00 C 444.25 455.20 439.75 458.12 437.00 459.50 C 434.25 460.88 429.52 462.68 426.50 463.50 C 423.24 464.39 416.72 465.00 410.50 465.00 C 402.83 465.00 398.25 464.46 393.50 463.00 C 389.93 461.90 384.30 459.20 381.00 457.00 C 377.70 454.80 372.98 451.20 370.50 449.00 C 368.02 446.80 364.20 442.30 362.00 439.00 C 359.80 435.70 357.10 430.52 356.00 427.50 C 354.62 423.70 353.85 418.45 353.50 410.50 C 353.23 404.18 353.45 396.52 354.00 393.50 C 354.55 390.48 356.57 384.85 358.50 381.00 C 360.43 377.15 363.80 371.98 366.00 369.50 C 368.20 367.02 372.25 363.20 375.00 361.00 C 377.75 358.80 382.25 355.88 385.00 354.50 C 387.75 353.12 392.70 351.32 396.00 350.50 C 399.30 349.68 406.05 349.00 411.00 349.00 C 415.95 349.00 422.48 349.68 425.50 350.50 C 428.52 351.32 433.48 353.12 436.50 354.50 C 439.52 355.88 444.02 358.57 451.00 364.00 L 472.00 349.50 C 483.55 341.52 504.70 326.90 519.00 317.00 C 533.30 307.10 545.45 298.55 546.00 298.00 C 546.67 297.33 546.50 294.67 545.50 290.00 C 544.52 285.41 544.17 280.08 544.50 274.50 C 544.77 269.82 545.90 263.30 547.00 260.00 C 548.10 256.70 550.35 251.53 552.00 248.50 C 553.65 245.47 557.02 240.75 559.50 238.00 C 561.98 235.25 567.15 230.97 571.00 228.50 C 574.85 226.03 580.92 223.10 584.50 222.00 C 588.08 220.90 591.90 219.78 593.00 219.50 Z"
     fill-rule="evenodd"
     id="path78" />
  <path
     fill="#B6C2C9"
     d="M 140.00 637.00 L 140.00 637.00 C 140.00 637.00 140.22 637.00 140.50 637.00 C 140.78 637.00 141.45 637.00 143.00 637.00 L 143.00 637.00 C 143.00 637.00 142.55 637.45 142.00 638.00 C 141.33 638.67 140.83 638.67 140.00 637.00 Z"
     fill-rule="evenodd"
     id="path80" />
  <path
     fill="#FDFEFE"
     d="M 181.00 786.50 C 184.54 785.17 222.62 785.06 509.00 785.50 C 830.28 786.00 833.04 786.02 837.50 788.00 C 839.98 789.10 843.35 791.58 845.00 793.50 C 846.65 795.42 848.90 798.80 850.00 801.00 C 851.92 804.85 852.00 807.00 852.00 909.00 L 849.50 914.00 C 848.00 917.00 845.00 920.60 842.00 923.00 C 839.01 925.39 834.79 927.60 831.50 928.50 C 826.65 929.82 788.33 929.94 185.00 929.00 L 179.50 926.50 C 176.47 925.12 172.65 922.65 171.00 921.00 C 169.35 919.35 166.88 915.52 163.00 907.00 L 163.00 807.00 L 165.50 801.50 C 166.97 798.27 169.86 794.35 172.50 792.00 C 174.97 789.80 178.80 787.33 181.00 786.50 Z M 184.50 790.50 C 182.03 791.33 178.65 793.12 177.00 794.50 C 175.35 795.88 173.10 798.12 172.00 799.50 C 170.90 800.88 169.32 803.58 168.50 805.50 C 167.24 808.45 167.00 816.61 167.00 857.50 L 167.00 906.00 C 170.88 913.75 173.35 917.12 175.00 918.50 C 176.65 919.88 179.80 921.90 182.00 923.00 C 185.98 924.99 188.00 925.00 507.50 925.00 L 829.00 925.00 C 836.75 921.12 840.35 918.42 842.00 916.50 C 843.65 914.58 845.67 911.42 846.50 909.50 C 847.73 906.62 848.09 897.85 848.50 860.00 C 848.92 821.11 848.77 813.15 847.50 808.50 C 846.67 805.48 844.65 801.20 843.00 799.00 C 841.07 796.43 838.04 794.11 834.50 792.50 L 829.00 790.00 C 226.33 789.06 188.48 789.17 184.50 790.50 Z"
     fill-rule="evenodd"
     id="path82" />
  <path
     fill="#88C0E3"
     d="M 184.50 790.50 C 188.48 789.17 226.33 789.06 829.00 790.00 L 834.50 792.50 C 838.04 794.11 841.07 796.43 843.00 799.00 C 844.65 801.20 846.67 805.48 847.50 808.50 C 848.77 813.15 848.92 821.11 848.50 860.00 C 848.09 897.85 847.73 906.62 846.50 909.50 C 845.67 911.42 843.65 914.58 842.00 916.50 C 840.35 918.42 836.75 921.12 829.00 925.00 L 507.50 925.00 C 188.00 925.00 185.98 924.99 182.00 923.00 C 179.80 921.90 176.65 919.88 175.00 918.50 C 173.35 917.12 170.88 913.75 167.00 906.00 L 167.00 857.50 C 167.00 816.61 167.24 808.45 168.50 805.50 C 169.32 803.58 170.90 800.88 172.00 799.50 C 173.10 798.12 175.35 795.88 177.00 794.50 C 178.65 793.12 182.03 791.33 184.50 790.50 Z M 279.00 819.00 C 279.00 872.48 279.00 888.23 279.00 888.50 C 279.00 888.77 281.93 889.00 285.50 889.00 L 292.00 889.00 L 292.00 853.00 C 295.88 850.67 299.02 850.00 301.50 850.00 C 304.67 850.00 306.59 850.59 308.00 852.00 C 309.85 853.85 310.00 855.33 310.00 871.50 C 310.00 882.17 310.39 889.20 311.00 889.50 C 311.55 889.77 314.48 889.77 317.50 889.50 L 323.00 889.00 C 323.00 860.33 322.55 850.42 322.00 848.50 C 321.45 846.58 319.43 843.65 317.50 842.00 C 315.57 840.35 312.43 838.77 310.50 838.50 C 308.57 838.23 304.98 838.23 302.50 838.50 C 299.73 838.81 296.85 839.96 295.00 841.50 L 292.00 844.00 L 292.00 819.00 L 279.00 819.00 Z M 633.00 819.00 C 633.00 868.33 633.41 882.02 634.00 883.50 C 634.55 884.88 635.90 886.67 637.00 887.50 C 638.10 888.33 641.92 889.23 645.50 889.50 L 652.00 890.00 C 652.00 879.43 651.80 878.96 649.50 878.50 L 647.00 878.00 L 646.00 819.00 L 633.00 819.00 Z M 231.50 822.00 C 230.12 822.55 227.65 823.67 226.00 824.50 C 224.35 825.33 222.10 827.35 221.00 829.00 C 219.62 831.07 218.85 834.31 218.50 839.50 C 218.04 846.41 218.20 847.23 220.50 850.00 C 221.88 851.65 224.35 854.12 226.00 855.50 C 227.65 856.88 232.15 858.90 236.00 860.00 C 239.85 861.10 244.35 862.45 246.00 863.00 C 247.65 863.55 250.12 864.90 251.50 866.00 C 253.17 867.33 254.00 869.00 254.00 871.00 C 254.00 872.67 253.11 874.89 252.00 876.00 C 250.90 877.10 248.88 878.23 247.50 878.50 C 246.12 878.77 242.30 878.77 239.00 878.50 C 235.34 878.19 230.47 876.83 226.50 875.00 L 220.00 872.00 C 216.58 879.70 216.29 881.43 217.00 882.50 C 217.55 883.33 220.47 885.12 223.50 886.50 C 227.78 888.45 231.21 889.11 239.00 889.50 C 246.34 889.87 250.20 889.60 253.50 888.50 C 255.97 887.67 259.35 885.88 261.00 884.50 C 262.65 883.12 264.68 880.65 265.50 879.00 C 266.33 877.33 267.00 873.33 267.00 870.00 C 267.00 865.67 266.44 863.17 265.00 861.00 C 263.90 859.35 261.65 856.88 260.00 855.50 C 258.35 854.12 254.53 852.33 251.50 851.50 C 248.47 850.67 243.53 849.33 240.50 848.50 C 237.47 847.67 234.10 846.10 233.00 845.00 C 231.76 843.76 231.00 841.67 231.00 839.50 C 231.00 837.17 231.67 835.50 233.00 834.50 C 234.10 833.67 237.70 832.77 241.00 832.50 C 245.47 832.13 248.40 832.51 252.50 834.00 C 255.53 835.10 258.68 836.23 259.50 836.50 C 260.50 836.83 261.67 835.67 263.00 833.00 C 264.10 830.80 265.00 828.33 265.00 827.50 C 265.00 826.59 262.83 825.21 259.50 824.00 C 255.99 822.72 250.38 821.82 244.00 821.50 C 238.37 821.22 232.91 821.44 231.50 822.00 Z M 508.00 822.00 C 508.00 873.15 508.00 888.23 508.00 888.50 C 508.00 888.77 510.93 889.00 514.50 889.00 L 521.00 889.00 L 521.00 860.00 L 550.00 860.00 L 550.00 889.00 L 564.00 889.00 C 563.23 845.60 563.00 830.52 563.00 827.50 L 563.00 822.00 L 550.00 822.00 L 550.00 849.00 L 521.00 849.00 L 521.00 822.00 L 508.00 822.00 Z M 348.50 839.00 C 346.57 839.55 343.20 840.67 341.00 841.50 C 338.80 842.33 337.00 843.45 337.00 844.00 C 337.00 844.55 337.68 846.58 338.50 848.50 C 339.32 850.42 340.45 852.00 341.00 852.00 C 341.55 852.00 343.80 851.33 346.00 850.50 C 348.20 849.67 352.25 849.00 355.00 849.00 C 358.67 849.00 360.53 849.53 362.00 851.00 C 363.11 852.11 364.00 854.33 364.00 856.00 L 364.00 859.00 C 348.81 859.84 344.75 860.62 342.00 862.00 C 339.80 863.10 337.10 865.35 336.00 867.00 C 334.67 869.00 334.00 871.67 334.00 875.00 C 334.00 878.17 334.73 881.28 336.00 883.50 C 337.15 885.52 339.48 887.64 341.50 888.50 C 343.93 889.54 346.98 889.85 351.50 889.50 C 355.64 889.18 359.09 888.28 361.00 887.00 C 362.65 885.90 364.23 885.00 364.50 885.00 C 364.77 885.00 365.23 885.90 365.50 887.00 C 365.77 888.10 366.23 889.00 366.50 889.00 C 366.77 889.00 369.25 889.00 372.00 889.00 L 377.00 889.00 C 376.14 856.27 375.58 850.03 374.50 847.50 C 373.62 845.45 371.34 842.96 369.00 841.50 C 366.19 839.75 363.06 838.85 358.50 838.50 C 354.93 838.23 350.43 838.45 348.50 839.00 Z M 409.00 839.50 C 407.35 840.33 405.55 841.90 405.00 843.00 C 404.45 844.10 403.55 845.00 403.00 845.00 C 402.45 845.00 401.77 843.65 401.50 842.00 C 401.02 839.09 400.83 839.00 395.50 839.00 L 390.00 839.00 L 390.00 889.00 L 403.00 889.00 C 403.00 855.20 403.03 854.97 405.50 852.50 C 407.50 850.50 409.00 850.00 413.00 850.00 C 416.56 850.00 418.14 849.57 418.50 848.50 C 418.77 847.67 419.00 845.20 419.00 843.00 C 419.00 839.19 418.83 838.98 415.50 838.50 C 413.43 838.20 410.78 838.61 409.00 839.50 Z M 440.00 839.00 C 438.35 839.55 435.20 841.58 433.00 843.50 C 430.64 845.56 428.18 849.05 427.00 852.00 C 425.34 856.15 425.09 858.54 425.50 866.00 C 425.91 873.32 426.47 875.75 428.50 879.00 C 429.88 881.20 432.80 884.35 435.00 886.00 C 437.20 887.65 441.25 889.45 444.00 890.00 C 447.33 890.67 450.67 890.67 454.00 890.00 C 456.75 889.45 460.80 887.65 463.00 886.00 C 465.20 884.35 467.23 882.33 467.50 881.50 C 467.80 880.59 466.82 879.21 465.00 878.00 L 462.00 876.00 C 455.80 879.10 452.20 880.00 450.00 880.00 C 447.80 880.00 444.88 879.55 443.50 879.00 C 442.12 878.45 440.10 876.20 439.00 874.00 C 437.90 871.80 437.23 869.55 437.50 869.00 C 437.80 868.40 444.33 868.00 454.00 868.00 C 467.33 868.00 470.08 867.75 470.50 866.50 C 470.77 865.67 470.55 861.85 470.00 858.00 C 469.25 852.78 468.24 849.98 466.00 847.00 C 464.35 844.80 461.43 842.10 459.50 841.00 C 457.43 839.81 453.35 838.80 449.50 838.50 C 445.93 838.23 441.65 838.45 440.00 839.00 Z M 591.00 839.00 C 589.35 839.55 586.42 841.35 584.50 843.00 C 582.58 844.65 580.10 847.80 579.00 850.00 C 577.83 852.33 576.79 856.92 576.50 861.00 C 576.23 864.85 576.45 870.02 577.00 872.50 C 577.55 874.98 579.12 878.80 580.50 881.00 C 582.30 883.88 584.54 885.70 588.50 887.50 C 592.56 889.35 595.70 890.00 600.50 890.00 C 605.30 890.00 608.44 889.35 612.50 887.50 C 615.52 886.12 618.45 884.10 619.00 883.00 C 619.85 881.30 619.39 880.55 616.00 878.00 L 612.00 875.00 C 606.38 879.69 605.31 879.94 600.50 879.50 C 596.10 879.10 594.40 878.40 592.00 876.00 C 590.27 874.27 589.00 871.94 589.00 870.50 L 589.00 868.00 L 622.00 868.00 C 621.19 855.88 620.23 851.46 619.00 849.00 C 617.90 846.80 615.42 843.88 613.50 842.50 C 611.58 841.12 608.65 839.55 607.00 839.00 C 605.35 838.45 601.75 838.00 599.00 838.00 C 596.25 838.00 592.65 838.45 591.00 839.00 Z M 680.00 839.50 C 678.35 840.33 676.55 841.67 676.00 842.50 C 675.45 843.33 674.55 844.00 674.00 844.00 C 673.45 844.00 673.00 842.88 673.00 841.50 C 673.00 839.08 672.83 839.02 667.50 839.50 L 662.00 840.00 C 662.00 848.52 662.00 864.05 662.00 880.00 L 662.00 909.00 L 675.00 909.00 L 675.00 886.00 C 680.93 889.39 683.83 890.00 688.00 890.00 C 691.33 890.00 695.33 889.33 697.00 888.50 C 698.65 887.67 701.35 885.42 703.00 883.50 C 705.00 881.17 706.33 878.17 707.00 874.50 C 707.55 871.48 707.77 865.40 707.50 861.00 C 707.20 856.15 706.21 851.23 705.00 848.50 C 703.67 845.50 701.67 843.17 699.00 841.50 C 696.33 839.83 693.00 838.83 689.00 838.50 C 684.81 838.15 682.10 838.45 680.00 839.50 Z M 732.00 839.00 C 730.35 839.55 727.20 841.58 725.00 843.50 C 722.80 845.42 720.10 849.02 719.00 851.50 C 717.62 854.61 717.00 858.17 717.00 863.00 C 717.00 866.85 717.45 872.02 718.00 874.50 C 718.60 877.18 720.41 880.62 722.50 883.00 C 724.42 885.20 727.80 887.67 730.00 888.50 C 732.20 889.33 737.15 890.00 741.00 890.00 C 745.83 890.00 749.39 889.38 752.50 888.00 C 754.98 886.90 757.90 884.88 759.00 883.50 L 761.00 881.00 L 753.00 875.00 C 749.07 878.14 745.86 879.21 743.00 879.50 C 739.67 879.83 737.00 879.50 735.00 878.50 C 733.30 877.65 731.35 875.48 730.50 873.50 C 729.67 871.58 729.00 869.55 729.00 869.00 C 729.00 868.37 735.33 868.00 746.00 868.00 L 763.00 868.00 C 762.14 855.05 761.32 851.77 759.50 848.50 C 758.08 845.95 755.27 842.92 753.00 841.50 C 750.08 839.67 747.12 838.87 742.00 838.50 C 738.15 838.23 733.65 838.45 732.00 839.00 Z M 793.00 839.50 C 791.35 840.33 789.55 841.90 789.00 843.00 C 788.45 844.10 787.55 845.00 787.00 845.00 C 786.45 845.00 785.77 843.65 785.50 842.00 C 785.02 839.09 784.83 839.00 779.50 839.00 L 774.00 839.00 L 774.00 889.00 L 787.00 889.00 C 787.00 863.42 787.23 855.33 787.50 854.50 C 787.77 853.67 789.35 852.33 791.00 851.50 C 792.65 850.67 796.02 850.00 798.50 850.00 C 802.72 850.00 803.03 849.81 803.50 847.00 C 803.77 845.35 804.00 842.65 804.00 841.00 C 804.00 838.17 803.78 838.00 800.00 838.00 C 797.80 838.00 794.65 838.67 793.00 839.50 Z"
     fill-rule="evenodd"
     id="path84" />
  <path
     fill="#FDFEFD"
     d="M 279.00 819.00 L 292.00 819.00 L 292.00 844.00 L 295.00 841.50 C 296.85 839.96 299.73 838.81 302.50 838.50 C 304.98 838.23 308.57 838.23 310.50 838.50 C 312.43 838.77 315.57 840.35 317.50 842.00 C 319.43 843.65 321.45 846.58 322.00 848.50 C 322.55 850.42 323.00 860.33 323.00 889.00 L 317.50 889.50 C 314.48 889.77 311.55 889.77 311.00 889.50 C 310.39 889.20 310.00 882.17 310.00 871.50 C 310.00 855.33 309.85 853.85 308.00 852.00 C 306.59 850.59 304.67 850.00 301.50 850.00 C 299.02 850.00 295.88 850.67 292.00 853.00 L 292.00 889.00 L 285.50 889.00 C 281.93 889.00 279.00 888.77 279.00 888.50 C 279.00 888.23 279.00 872.48 279.00 819.00 Z"
     fill-rule="evenodd"
     id="path86" />
  <path
     fill="#FDFDFD"
     d="M 633.00 819.00 L 646.00 819.00 L 647.00 878.00 L 649.50 878.50 C 651.80 878.96 652.00 879.43 652.00 890.00 L 645.50 889.50 C 641.92 889.23 638.10 888.33 637.00 887.50 C 635.90 886.67 634.55 884.88 634.00 883.50 C 633.41 882.02 633.00 868.33 633.00 819.00 Z"
     fill-rule="evenodd"
     id="path88" />
  <path
     fill="#FDFEFD"
     d="M 231.50 822.00 C 232.91 821.44 238.37 821.22 244.00 821.50 C 250.38 821.82 255.99 822.72 259.50 824.00 C 262.83 825.21 265.00 826.59 265.00 827.50 C 265.00 828.33 264.10 830.80 263.00 833.00 C 261.67 835.67 260.50 836.83 259.50 836.50 C 258.68 836.23 255.53 835.10 252.50 834.00 C 248.40 832.51 245.47 832.13 241.00 832.50 C 237.70 832.77 234.10 833.67 233.00 834.50 C 231.67 835.50 231.00 837.17 231.00 839.50 C 231.00 841.67 231.76 843.76 233.00 845.00 C 234.10 846.10 237.47 847.67 240.50 848.50 C 243.53 849.33 248.47 850.67 251.50 851.50 C 254.53 852.33 258.35 854.12 260.00 855.50 C 261.65 856.88 263.90 859.35 265.00 861.00 C 266.44 863.17 267.00 865.67 267.00 870.00 C 267.00 873.33 266.33 877.33 265.50 879.00 C 264.68 880.65 262.65 883.12 261.00 884.50 C 259.35 885.88 255.97 887.67 253.50 888.50 C 250.20 889.60 246.34 889.87 239.00 889.50 C 231.21 889.11 227.78 888.45 223.50 886.50 C 220.47 885.12 217.55 883.33 217.00 882.50 C 216.29 881.43 216.58 879.70 220.00 872.00 L 226.50 875.00 C 230.47 876.83 235.34 878.19 239.00 878.50 C 242.30 878.77 246.12 878.77 247.50 878.50 C 248.88 878.23 250.90 877.10 252.00 876.00 C 253.11 874.89 254.00 872.67 254.00 871.00 C 254.00 869.00 253.17 867.33 251.50 866.00 C 250.12 864.90 247.65 863.55 246.00 863.00 C 244.35 862.45 239.85 861.10 236.00 860.00 C 232.15 858.90 227.65 856.88 226.00 855.50 C 224.35 854.12 221.88 851.65 220.50 850.00 C 218.20 847.23 218.04 846.41 218.50 839.50 C 218.85 834.31 219.62 831.07 221.00 829.00 C 222.10 827.35 224.35 825.33 226.00 824.50 C 227.65 823.67 230.12 822.55 231.50 822.00 Z"
     fill-rule="evenodd"
     id="path90" />
  <path
     fill="#FDFEFE"
     d="M 508.00 822.00 L 521.00 822.00 L 521.00 849.00 L 550.00 849.00 L 550.00 822.00 L 563.00 822.00 L 563.00 827.50 C 563.00 830.52 563.23 845.60 564.00 889.00 L 550.00 889.00 L 550.00 860.00 L 521.00 860.00 L 521.00 889.00 L 514.50 889.00 C 510.93 889.00 508.00 888.77 508.00 888.50 C 508.00 888.23 508.00 873.15 508.00 822.00 Z"
     fill-rule="evenodd"
     id="path92" />
  <path
     fill="#FDFEFE"
     d="M 348.50 839.00 C 350.43 838.45 354.93 838.23 358.50 838.50 C 363.06 838.85 366.19 839.75 369.00 841.50 C 371.34 842.96 373.62 845.45 374.50 847.50 C 375.58 850.03 376.14 856.27 377.00 889.00 L 372.00 889.00 C 369.25 889.00 366.77 889.00 366.50 889.00 C 366.23 889.00 365.77 888.10 365.50 887.00 C 365.23 885.90 364.77 885.00 364.50 885.00 C 364.23 885.00 362.65 885.90 361.00 887.00 C 359.09 888.28 355.64 889.18 351.50 889.50 C 346.98 889.85 343.93 889.54 341.50 888.50 C 339.48 887.64 337.15 885.52 336.00 883.50 C 334.73 881.28 334.00 878.17 334.00 875.00 C 334.00 871.67 334.67 869.00 336.00 867.00 C 337.10 865.35 339.80 863.10 342.00 862.00 C 344.75 860.62 348.81 859.84 364.00 859.00 L 364.00 856.00 C 364.00 854.33 363.11 852.11 362.00 851.00 C 360.53 849.53 358.67 849.00 355.00 849.00 C 352.25 849.00 348.20 849.67 346.00 850.50 C 343.80 851.33 341.55 852.00 341.00 852.00 C 340.45 852.00 339.32 850.42 338.50 848.50 C 337.68 846.58 337.00 844.55 337.00 844.00 C 337.00 843.45 338.80 842.33 341.00 841.50 C 343.20 840.67 346.57 839.55 348.50 839.00 Z M 351.50 868.00 C 350.12 868.55 348.32 869.67 347.50 870.50 C 346.68 871.33 346.00 873.12 346.00 874.50 C 346.00 875.88 346.90 877.67 348.00 878.50 C 349.10 879.33 352.02 880.00 354.50 880.00 C 357.50 880.00 359.83 879.33 361.50 878.00 C 363.50 876.40 364.00 875.10 364.00 871.50 L 364.00 867.00 C 356.25 867.00 352.88 867.45 351.50 868.00 Z"
     fill-rule="evenodd"
     id="path94" />
  <path
     fill="#FDFEFD"
     d="M 409.00 839.50 C 410.78 838.61 413.43 838.20 415.50 838.50 C 418.83 838.98 419.00 839.19 419.00 843.00 C 419.00 845.20 418.77 847.67 418.50 848.50 C 418.14 849.57 416.56 850.00 413.00 850.00 C 409.00 850.00 407.50 850.50 405.50 852.50 C 403.03 854.97 403.00 855.20 403.00 889.00 L 390.00 889.00 L 390.00 839.00 L 395.50 839.00 C 400.83 839.00 401.02 839.09 401.50 842.00 C 401.77 843.65 402.45 845.00 403.00 845.00 C 403.55 845.00 404.45 844.10 405.00 843.00 C 405.55 841.90 407.35 840.33 409.00 839.50 Z"
     fill-rule="evenodd"
     id="path96" />
  <path
     fill="#FDFEFD"
     d="M 440.00 839.00 C 441.65 838.45 445.93 838.23 449.50 838.50 C 453.35 838.80 457.43 839.81 459.50 841.00 C 461.43 842.10 464.35 844.80 466.00 847.00 C 468.24 849.98 469.25 852.78 470.00 858.00 C 470.55 861.85 470.77 865.67 470.50 866.50 C 470.08 867.75 467.33 868.00 454.00 868.00 C 444.33 868.00 437.80 868.40 437.50 869.00 C 437.23 869.55 437.90 871.80 439.00 874.00 C 440.10 876.20 442.12 878.45 443.50 879.00 C 444.88 879.55 447.80 880.00 450.00 880.00 C 452.20 880.00 455.80 879.10 462.00 876.00 L 465.00 878.00 C 466.82 879.21 467.80 880.59 467.50 881.50 C 467.23 882.33 465.20 884.35 463.00 886.00 C 460.80 887.65 456.75 889.45 454.00 890.00 C 450.67 890.67 447.33 890.67 444.00 890.00 C 441.25 889.45 437.20 887.65 435.00 886.00 C 432.80 884.35 429.88 881.20 428.50 879.00 C 426.47 875.75 425.91 873.32 425.50 866.00 C 425.09 858.54 425.34 856.15 427.00 852.00 C 428.18 849.05 430.64 845.56 433.00 843.50 C 435.20 841.58 438.35 839.55 440.00 839.00 Z M 444.00 849.00 C 442.90 849.55 441.10 851.12 440.00 852.50 C 438.90 853.88 437.77 855.90 437.50 857.00 C 437.02 858.91 437.50 859.00 448.00 859.00 L 459.00 859.00 C 457.45 854.35 457.00 852.77 457.00 852.50 C 457.00 852.23 455.65 851.10 454.00 850.00 C 452.35 848.90 449.88 848.00 448.50 848.00 C 447.12 848.00 445.10 848.45 444.00 849.00 Z"
     fill-rule="evenodd"
     id="path98" />
  <path
     fill="#FDFEFD"
     d="M 591.00 839.00 C 592.65 838.45 596.25 838.00 599.00 838.00 C 601.75 838.00 605.35 838.45 607.00 839.00 C 608.65 839.55 611.58 841.12 613.50 842.50 C 615.42 843.88 617.90 846.80 619.00 849.00 C 620.23 851.46 621.19 855.88 622.00 868.00 L 589.00 868.00 L 589.00 870.50 C 589.00 871.94 590.27 874.27 592.00 876.00 C 594.40 878.40 596.10 879.10 600.50 879.50 C 605.31 879.94 606.38 879.69 612.00 875.00 L 616.00 878.00 C 619.39 880.55 619.85 881.30 619.00 883.00 C 618.45 884.10 615.52 886.12 612.50 887.50 C 608.44 889.35 605.30 890.00 600.50 890.00 C 595.70 890.00 592.56 889.35 588.50 887.50 C 584.54 885.70 582.30 883.88 580.50 881.00 C 579.12 878.80 577.55 874.98 577.00 872.50 C 576.45 870.02 576.23 864.85 576.50 861.00 C 576.79 856.92 577.83 852.33 579.00 850.00 C 580.10 847.80 582.58 844.65 584.50 843.00 C 586.42 841.35 589.35 839.55 591.00 839.00 Z M 595.00 849.00 C 593.90 849.55 592.33 850.90 591.50 852.00 C 590.67 853.10 589.55 855.12 589.00 856.50 L 588.00 859.00 L 610.00 859.00 C 609.23 855.12 608.55 853.33 608.00 852.50 C 607.45 851.67 605.65 850.33 604.00 849.50 C 602.35 848.67 600.10 848.00 599.00 848.00 C 597.90 848.00 596.10 848.45 595.00 849.00 Z"
     fill-rule="evenodd"
     id="path100" />
  <path
     fill="#FDFEFD"
     d="M 680.00 839.50 C 682.10 838.45 684.81 838.15 689.00 838.50 C 693.00 838.83 696.33 839.83 699.00 841.50 C 701.67 843.17 703.67 845.50 705.00 848.50 C 706.21 851.23 707.20 856.15 707.50 861.00 C 707.77 865.40 707.55 871.48 707.00 874.50 C 706.33 878.17 705.00 881.17 703.00 883.50 C 701.35 885.42 698.65 887.67 697.00 888.50 C 695.33 889.33 691.33 890.00 688.00 890.00 C 683.83 890.00 680.93 889.39 675.00 886.00 L 675.00 909.00 L 662.00 909.00 L 662.00 880.00 C 662.00 864.05 662.00 848.52 662.00 840.00 L 667.50 839.50 C 672.83 839.02 673.00 839.08 673.00 841.50 C 673.00 842.88 673.45 844.00 674.00 844.00 C 674.55 844.00 675.45 843.33 676.00 842.50 C 676.55 841.67 678.35 840.33 680.00 839.50 Z M 677.50 851.00 C 675.09 852.92 675.00 853.43 675.00 864.50 C 675.00 874.83 675.20 876.15 677.00 877.50 C 678.10 878.33 681.02 879.23 683.50 879.50 C 687.61 879.96 688.30 879.70 691.50 876.50 C 694.46 873.54 695.00 872.31 695.00 868.50 C 695.00 866.02 695.00 862.65 695.00 861.00 C 695.00 859.35 694.33 856.42 693.50 854.50 C 692.67 852.57 690.88 850.55 689.50 850.00 C 688.12 849.45 685.42 849.00 683.50 849.00 C 681.50 849.00 678.93 849.86 677.50 851.00 Z"
     fill-rule="evenodd"
     id="path102" />
  <path
     fill="#FCFDFD"
     d="M 732.00 839.00 C 733.65 838.45 738.15 838.23 742.00 838.50 C 747.12 838.87 750.08 839.67 753.00 841.50 C 755.27 842.92 758.08 845.95 759.50 848.50 C 761.32 851.77 762.14 855.05 763.00 868.00 L 746.00 868.00 C 735.33 868.00 729.00 868.37 729.00 869.00 C 729.00 869.55 729.67 871.58 730.50 873.50 C 731.35 875.48 733.30 877.65 735.00 878.50 C 737.00 879.50 739.67 879.83 743.00 879.50 C 745.86 879.21 749.07 878.14 753.00 875.00 L 761.00 881.00 L 759.00 883.50 C 757.90 884.88 754.98 886.90 752.50 888.00 C 749.39 889.38 745.83 890.00 741.00 890.00 C 737.15 890.00 732.20 889.33 730.00 888.50 C 727.80 887.67 724.42 885.20 722.50 883.00 C 720.41 880.62 718.60 877.18 718.00 874.50 C 717.45 872.02 717.00 866.85 717.00 863.00 C 717.00 858.17 717.62 854.61 719.00 851.50 C 720.10 849.02 722.80 845.42 725.00 843.50 C 727.20 841.58 730.35 839.55 732.00 839.00 Z M 735.50 849.50 C 734.12 850.33 732.10 852.58 731.00 854.50 C 729.67 856.83 729.33 858.33 730.00 859.00 C 730.60 859.60 734.97 859.80 741.00 859.50 C 750.38 859.03 750.97 858.88 750.50 857.00 C 750.23 855.90 749.33 853.88 748.50 852.50 C 747.47 850.79 745.58 849.68 742.50 849.00 C 738.93 848.21 737.48 848.31 735.50 849.50 Z"
     fill-rule="evenodd"
     id="path104" />
  <path
     fill="#FDFDFD"
     d="M 793.00 839.50 C 794.65 838.67 797.80 838.00 800.00 838.00 C 803.78 838.00 804.00 838.17 804.00 841.00 C 804.00 842.65 803.77 845.35 803.50 847.00 C 803.03 849.81 802.72 850.00 798.50 850.00 C 796.02 850.00 792.65 850.67 791.00 851.50 C 789.35 852.33 787.77 853.67 787.50 854.50 C 787.23 855.33 787.00 863.42 787.00 889.00 L 774.00 889.00 L 774.00 839.00 L 779.50 839.00 C 784.83 839.00 785.02 839.09 785.50 842.00 C 785.77 843.65 786.45 845.00 787.00 845.00 C 787.55 845.00 788.45 844.10 789.00 843.00 C 789.55 841.90 791.35 840.33 793.00 839.50 Z"
     fill-rule="evenodd"
     id="path106" />
  <path
     fill="#86BFE3"
     d="M 444.00 849.00 C 445.10 848.45 447.12 848.00 448.50 848.00 C 449.88 848.00 452.35 848.90 454.00 850.00 C 455.65 851.10 457.00 852.23 457.00 852.50 C 457.00 852.77 457.45 854.35 459.00 859.00 L 448.00 859.00 C 437.50 859.00 437.02 858.91 437.50 857.00 C 437.77 855.90 438.90 853.88 440.00 852.50 C 441.10 851.12 442.90 849.55 444.00 849.00 Z"
     fill-rule="evenodd"
     id="path108" />
  <path
     fill="#87C0E4"
     d="M 595.00 849.00 C 596.10 848.45 597.90 848.00 599.00 848.00 C 600.10 848.00 602.35 848.67 604.00 849.50 C 605.65 850.33 607.45 851.67 608.00 852.50 C 608.55 853.33 609.23 855.12 610.00 859.00 L 588.00 859.00 L 589.00 856.50 C 589.55 855.12 590.67 853.10 591.50 852.00 C 592.33 850.90 593.90 849.55 595.00 849.00 Z"
     fill-rule="evenodd"
     id="path110" />
  <path
     fill="#87C0E4"
     d="M 735.50 849.50 C 737.48 848.31 738.93 848.21 742.50 849.00 C 745.58 849.68 747.47 850.79 748.50 852.50 C 749.33 853.88 750.23 855.90 750.50 857.00 C 750.97 858.88 750.38 859.03 741.00 859.50 C 734.97 859.80 730.60 859.60 730.00 859.00 C 729.33 858.33 729.67 856.83 731.00 854.50 C 732.10 852.58 734.12 850.33 735.50 849.50 Z"
     fill-rule="evenodd"
     id="path112" />
  <path
     fill="#88C1E3"
     d="M 677.50 851.00 C 678.93 849.86 681.50 849.00 683.50 849.00 C 685.42 849.00 688.12 849.45 689.50 850.00 C 690.88 850.55 692.67 852.57 693.50 854.50 C 694.33 856.42 695.00 859.35 695.00 861.00 C 695.00 862.65 695.00 866.02 695.00 868.50 C 695.00 872.31 694.46 873.54 691.50 876.50 C 688.30 879.70 687.61 879.96 683.50 879.50 C 681.02 879.23 678.10 878.33 677.00 877.50 C 675.20 876.15 675.00 874.83 675.00 864.50 C 675.00 853.43 675.09 852.92 677.50 851.00 Z"
     fill-rule="evenodd"
     id="path114" />
  <path
     fill="#85BFE3"
     d="M 351.50 868.00 C 352.88 867.45 356.25 867.00 364.00 867.00 L 364.00 871.50 C 364.00 875.10 363.50 876.40 361.50 878.00 C 359.83 879.33 357.50 880.00 354.50 880.00 C 352.02 880.00 349.10 879.33 348.00 878.50 C 346.90 877.67 346.00 875.88 346.00 874.50 C 346.00 873.12 346.68 871.33 347.50 870.50 C 348.32 869.67 350.12 868.55 351.50 868.00 Z"
     fill-rule="evenodd"
     id="path116" />
</svg>
